<svg width="860" height="940" viewBox="0 0 860 940" fill="none" xmlns="http://www.w3.org/2000/svg" role="img" aria-label="GitHub profile statistics">
  <defs>
    <linearGradient id="bg" x1="0" y1="0" x2="860" y2="940" gradientUnits="userSpaceOnUse">
      <stop stop-color="#0b0f17" />
      <stop offset="0.52" stop-color="#101722" />
      <stop offset="1" stop-color="#0d1320" />
    </linearGradient>
    <linearGradient id="hero" x1="40" y1="34" x2="240" y2="34" gradientUnits="userSpaceOnUse">
      <stop stop-color="#f7f9fc" />
      <stop offset="1" stop-color="#8ab4ff" />
    </linearGradient>
    <linearGradient id="cardGlow" x1="0" y1="0" x2="350" y2="92" gradientUnits="userSpaceOnUse">
      <stop stop-color="#ffffff" />
      <stop offset="1" stop-color="#ffffff" stop-opacity="0" />
    </linearGradient>
  </defs>
  <rect width="860" height="940" rx="28" fill="url(#bg)" />
  <rect x="16" y="16" width="828" height="908" rx="20" fill="none" stroke="#273042" />
  <rect x="40" y="38" width="120" height="8" rx="4" fill="#4f8cff" opacity="0.9" />
  <style>
    text {
      font-family: -apple-system, BlinkMacSystemFont, "Segoe UI", Ubuntu, "Helvetica Neue", Arial, sans-serif;
    }
  </style>
  <text x="40" y="80" fill="#8f9bb3" font-size="13" font-weight="700" letter-spacing="1.4">GITHUB PROFILE OVERVIEW</text>
  <text x="40" y="118" fill="url(#hero)" font-size="32" font-weight="800">@younesdev123</text>
  
            <g transform="translate(40,172)">
              <rect width="350" height="92" rx="20" fill="#151922" stroke="#2a3140" />
              <rect x="0" y="0" width="350" height="92" rx="20" fill="url(#cardGlow)" opacity="0.18" />
              <rect x="18" y="20" width="7" height="52" rx="3.5" fill="#4f8cff" />
              <text x="42" y="35" fill="#8f9bb3" font-size="13" font-weight="600" letter-spacing="0.2">Commits sur 12 mois</text>
              <text x="42" y="68" fill="#f7f9fc" font-size="30" font-weight="800">1025</text>
            </g>
            
            <g transform="translate(430,172)">
              <rect width="350" height="92" rx="20" fill="#151922" stroke="#2a3140" />
              <rect x="0" y="0" width="350" height="92" rx="20" fill="url(#cardGlow)" opacity="0.18" />
              <rect x="18" y="20" width="7" height="52" rx="3.5" fill="#35c759" />
              <text x="42" y="35" fill="#8f9bb3" font-size="13" font-weight="600" letter-spacing="0.2">Activité globale</text>
              <text x="42" y="68" fill="#f7f9fc" font-size="30" font-weight="800">2.2k</text>
            </g>
            
  <text x="40" y="287" fill="#f7f9fc" font-size="24" font-weight="800">Langages dominants</text>
  <rect x="40.00" y="330" width="231.85" height="16" fill="#4f8cff" rx="6" /><rect x="271.85" y="330" width="222.53" height="16" fill="#35c759" rx="6" /><rect x="494.38" y="330" width="170.96" height="16" fill="#ffcc4d" rx="6" /><rect x="665.34" y="330" width="129.70" height="16" fill="#ff7a6b" rx="6" /><rect x="795.04" y="330" width="24.96" height="16" fill="#a974ff" rx="6" />
            <g transform="translate(40,378)">
              <circle cx="8" cy="8" r="8" fill="#4f8cff" />
              <text x="24" y="12" fill="#c9d1d9" font-size="14" font-weight="600">JavaScript</text>
              <text x="290" y="12" fill="#8b949e" font-size="13" text-anchor="end">29.7%</text>
            </g>
            
            <g transform="translate(430,378)">
              <circle cx="8" cy="8" r="8" fill="#35c759" />
              <text x="24" y="12" fill="#c9d1d9" font-size="14" font-weight="600">HTML</text>
              <text x="290" y="12" fill="#8b949e" font-size="13" text-anchor="end">28.5%</text>
            </g>
            
            <g transform="translate(40,418)">
              <circle cx="8" cy="8" r="8" fill="#ffcc4d" />
              <text x="24" y="12" fill="#c9d1d9" font-size="14" font-weight="600">C#</text>
              <text x="290" y="12" fill="#8b949e" font-size="13" text-anchor="end">21.9%</text>
            </g>
            
            <g transform="translate(430,418)">
              <circle cx="8" cy="8" r="8" fill="#ff7a6b" />
              <text x="24" y="12" fill="#c9d1d9" font-size="14" font-weight="600">PHP</text>
              <text x="290" y="12" fill="#8b949e" font-size="13" text-anchor="end">16.6%</text>
            </g>
            
            <g transform="translate(40,458)">
              <circle cx="8" cy="8" r="8" fill="#a974ff" />
              <text x="24" y="12" fill="#c9d1d9" font-size="14" font-weight="600">CSS</text>
              <text x="290" y="12" fill="#8b949e" font-size="13" text-anchor="end">3.2%</text>
            </g>
            
  <text x="40" y="525" fill="#f7f9fc" font-size="24" font-weight="800">Frameworks récurrents</text>
  
            <g transform="translate(40,565)">
              <text x="0" y="13" fill="#c9d1d9" font-size="14" font-weight="600">Nuxt</text>
              <rect x="190" y="0" width="250" height="12" rx="6" fill="#1b2230" />
              <rect x="190" y="0" width="250.00" height="12" rx="6" fill="#4f8cff" />
              <text x="500" y="12" fill="#8f9bb3" font-size="13" text-anchor="end">19 repos</text>
            </g>
            
            <g transform="translate(40,597)">
              <text x="0" y="13" fill="#c9d1d9" font-size="14" font-weight="600">Express</text>
              <rect x="190" y="0" width="250" height="12" rx="6" fill="#1b2230" />
              <rect x="190" y="0" width="236.84" height="12" rx="6" fill="#4f8cff" />
              <text x="500" y="12" fill="#8f9bb3" font-size="13" text-anchor="end">18 repos</text>
            </g>
            
            <g transform="translate(40,629)">
              <text x="0" y="13" fill="#c9d1d9" font-size="14" font-weight="600">Vue</text>
              <rect x="190" y="0" width="250" height="12" rx="6" fill="#1b2230" />
              <rect x="190" y="0" width="197.37" height="12" rx="6" fill="#4f8cff" />
              <text x="500" y="12" fill="#8f9bb3" font-size="13" text-anchor="end">15 repos</text>
            </g>
            
            <g transform="translate(40,661)">
              <text x="0" y="13" fill="#c9d1d9" font-size="14" font-weight="600">Laravel</text>
              <rect x="190" y="0" width="250" height="12" rx="6" fill="#1b2230" />
              <rect x="190" y="0" width="105.26" height="12" rx="6" fill="#4f8cff" />
              <text x="500" y="12" fill="#8f9bb3" font-size="13" text-anchor="end">8 repos</text>
            </g>
            
            <g transform="translate(40,693)">
              <text x="0" y="13" fill="#c9d1d9" font-size="14" font-weight="600">Socket.IO</text>
              <rect x="190" y="0" width="250" height="12" rx="6" fill="#1b2230" />
              <rect x="190" y="0" width="39.47" height="12" rx="6" fill="#4f8cff" />
              <text x="500" y="12" fill="#8f9bb3" font-size="13" text-anchor="end">3 repos</text>
            </g>
            
            <g transform="translate(40,725)">
              <text x="0" y="13" fill="#c9d1d9" font-size="14" font-weight="600">Livewire</text>
              <rect x="190" y="0" width="250" height="12" rx="6" fill="#1b2230" />
              <rect x="190" y="0" width="13.16" height="12" rx="6" fill="#4f8cff" />
              <text x="500" y="12" fill="#8f9bb3" font-size="13" text-anchor="end">1 repo</text>
            </g>
            
  <text x="40" y="900" fill="#69748c" font-size="12">Généré le 2026-03-22 12:49 UTC</text>
  <text x="655" y="900" fill="#8ab4ff" font-size="12" font-weight="700">Made by younesdev123</text>
</svg>
